<svg id="7a3eb20f-88bb-4e81-abc1-4120e8c82f54" data-name="Layer 1" xmlns="http://www.w3.org/2000/svg" viewBox="0 0 1080 1080"><title>linkedin icon</title><circle cx="540.3" cy="539.5" r="535.5" style="fill:#005983"/><path d="M848.1,582.2V795.4H724.5V596.5c0-49.9-17.8-84-62.6-84-34.1,0-54.4,23-63.4,45.2-3.3,7.9-4.1,19-4.1,30.1V795.4H470.8s1.7-336.8,0-371.7H594.4v52.7l-.8,1.2h.8v-1.2c16.4-25.3,45.7-61.4,111.4-61.4,81.3,0,142.3,53.1,142.3,167.2ZM341.6,244.6c-42.3,0-69.9,27.7-69.9,64.2S298.5,373,339.9,373h.8c43.1,0,69.9-28.5,69.9-64.2s-26.8-64.2-69.1-64.2ZM279,795.4H402.5V423.7H279Zm0,0" style="fill:#f1f2f2"/></svg>