<?xml version="1.0" standalone="no"?><!-- Generator: Gravit.io --><svg xmlns="http://www.w3.org/2000/svg" xmlns:xlink="http://www.w3.org/1999/xlink" style="isolation:isolate" viewBox="0 0 512 512" width="512" height="512"><defs><clipPath id="_clipPath_64LTOz0SCguHbmrpvU4qlGjnlid40669"><rect width="512" height="512"/></clipPath></defs><g clip-path="url(#_clipPath_64LTOz0SCguHbmrpvU4qlGjnlid40669)"><g id="Core"><g id="account-circle"><path d=" M 256 0.5 C 115.5 0.5 0.5 115.5 0.5 256 C 0.5 396.5 115.5 511.5 256 511.5 C 396.5 511.5 511.5 396.5 511.5 256 C 511.5 115.5 396.5 0.5 256 0.5 L 256 0.5 Z  M 256 77.2 C 299.4 77.2 332.7 110.4 332.7 153.8 C 332.7 197.2 299.4 230.5 256 230.5 C 212.6 230.5 179.4 197.2 179.4 153.8 C 179.4 110.4 212.6 77.2 256 77.2 L 256 77.2 Z  M 256 440 C 192.1 440 135.9 406.7 102.7 358.2 C 102.7 307.1 204.9 279 256 279 C 307.1 279 409.3 307.1 409.3 358.2 C 376.1 406.7 319.9 440 256 440 L 256 440 Z " fill-rule="evenodd" fill="rgb(0,0,0)"/></g></g></g></svg>