<?xml version="1.0" standalone="no"?><!-- Generator: Gravit.io --><svg xmlns="http://www.w3.org/2000/svg" xmlns:xlink="http://www.w3.org/1999/xlink" style="isolation:isolate" viewBox="0 0 256 256" width="256" height="256"><defs><clipPath id="_clipPath_tDENFR26EI3a1qBbDYSWKdYmJWviqH0y"><rect width="256" height="256"/></clipPath></defs><g clip-path="url(#_clipPath_tDENFR26EI3a1qBbDYSWKdYmJWviqH0y)"><path d=" M 255.5 128 C 255.5 57.6 198.4 0.5 128 0.5 C 57.6 0.5 0.5 57.6 0.5 128 C 0.5 198.4 57.6 255.5 128 255.5 C 198.4 255.5 255.5 198.4 255.5 128 Z " fill="rgb(97,95,95)"/><path d=" M 128 255.5 C 198.4 255.5 255.5 198.4 255.5 128 C 255.5 94.1 242.2 63.3 220.5 40.4 L 39.2 219.5 C 62.1 241.7 93.5 255.5 128 255.5 Z " fill="rgb(75,74,74)"/><path d=" M 194.6 122.3 C 209 122.7 223.3 123.1 237.4 125.6 C 238.5 125.8 239.7 125.7 240.8 125.7 C 240.8 125.3 240.8 125 240.8 124.7 C 224.7 121.2 208.3 121 191.9 120.6 C 192.5 116.7 193.1 113 193.5 109.3 C 195.1 94.8 193.3 81.2 183.2 69.6 C 182.3 68.7 182.2 66.9 182.2 65.4 C 182.2 60 183.1 54.5 182.2 49.3 C 180.8 40.9 180.5 39.5 171.2 42.4 C 165 44.4 159.2 47.9 153.2 50.7 C 152 51.3 150.5 51.6 149.3 51.4 C 135.3 48.6 121.3 48.4 107.4 51.3 C 102.4 52.3 98.8 51.7 94.7 48.9 C 89.1 45 82.7 42.4 75.8 41.5 C 73.2 41.1 71.6 41.8 70.8 44.5 C 68.3 52.2 68.1 59.9 69.7 67.8 C 70 69 69.6 70.8 68.9 71.8 C 64.5 77.4 60.7 83.4 60.2 90.6 C 59.7 96.8 59.9 102.9 60.3 109 C 60.6 112.8 61.6 116.6 62.4 120.4 C 58.7 120.5 55.2 120.6 51.7 120.9 C 40.3 121.8 28.9 122.8 17.5 123.9 C 16.6 124 15.9 124.6 15.1 124.9 C 15.1 125.2 15.3 125.5 15.4 125.8 C 17.2 125.5 19.2 125.1 21.1 124.9 C 34 124 46.8 123.2 59.7 122.2 C 62.8 121.9 64.3 122.8 64.6 126.1 C 47.9 126.7 31.3 128.5 15.4 134 C 16.4 134.4 17.4 134.4 18.3 134.2 C 33.2 130.3 48.4 128.2 63.8 127.9 C 64.8 127.9 66.2 128.5 66.7 129.3 C 71.2 136.5 77.3 141.9 85.1 144.9 C 92.7 147.6 100.6 149.4 108.2 151.6 C 105.4 154.5 102.5 158 101.8 162.8 C 101.8 163.3 101.1 163.7 100.6 164 C 94 168 82.2 166.3 77.1 160.4 C 74.6 157.6 72.4 154.4 69.9 151.6 C 66.6 148 62.7 145.6 57.6 146.7 C 56.6 146.9 55.8 147.6 55 148.1 C 55.5 149 55.8 150.1 56.6 150.6 C 62.7 154.4 66.4 160.1 69.3 166.6 C 72.2 173.4 77.6 178 85.2 178.9 C 90.3 179.5 95.6 179 101 179 C 101 184.8 100.9 190.6 101.1 196.5 C 101.2 199.9 99.8 202.3 97.2 204.3 C 95.9 205.3 94.4 206.3 93.2 207.5 C 92.3 208.4 92.1 209.5 93.8 210.1 C 101.4 212.9 111.6 206 111.6 198 C 111.6 189.7 111.6 181.5 111.7 173.2 C 111.7 170.7 112.4 168.5 114.4 166.5 C 114.6 167.2 114.7 167.5 114.7 167.8 C 114.6 179.4 114.6 191.1 114.4 202.8 C 114.4 205.9 113.4 208.9 110.8 211.2 C 110.2 211.7 109.7 213.4 110 213.8 C 110.7 214.5 112 215 112.9 214.9 C 118.6 214.5 124.6 209.2 125.2 203.6 C 126.1 196 126.2 188.5 126.4 180.9 C 126.6 175.7 126.5 170.5 126.5 165 C 127.5 165.1 128.2 165.1 129.2 165.2 C 129.2 166.5 129.2 167.6 129.2 168.8 C 129.3 179.1 129.2 189.3 129.4 199.6 C 129.6 207.6 134.8 213.6 142.5 214.9 C 143.4 215.1 144.8 214.8 145.3 214.2 C 145.7 213.6 145.5 212.3 145.2 211.4 C 144.9 210.6 144 209.9 143.6 209.1 C 142.6 206.9 140.9 204.7 140.9 202.3 C 140.6 190.7 140.7 179 140.7 167.3 C 140.7 167.1 141 167 141.3 166.5 C 143.7 168.6 143.8 171.2 143.8 173.9 C 144 182.1 144.2 190.2 144.2 198.4 C 144.2 203.1 146.3 206.5 150.4 208.4 C 152.7 209.5 155.4 210.1 158 210.3 C 159.6 210.4 161.3 209.6 163 209.1 C 162 208 161.1 206.8 160.1 205.6 C 159.8 205.3 159.5 205.1 159.2 205 C 156.2 202.8 154.7 200.1 154.8 196.3 C 155.1 189 155.2 181.8 155 174.6 C 154.7 165.9 154.8 156.9 146.4 151.1 C 152.1 150 157.7 149.1 163 147.8 C 173.4 145.2 182.3 140.3 187.6 130.4 C 188.7 128.3 190 127.7 192.2 127.9 C 207.7 128.9 223.2 130.1 238.2 134.4 C 238.8 134.6 239.5 134.4 240.1 134.4 C 240.1 134.1 240.1 133.7 240.2 133.3 C 223.9 128.1 207 127 190 126.1 C 190.2 123.2 191.8 122.2 194.6 122.3 Z  M 177.2 120.5 C 175.8 137.1 164.2 143.6 150.3 145.1 C 143.3 145.8 136.2 145.8 125.9 146.2 C 119.8 145.7 110.5 145.2 101.2 143.9 C 97.3 143.3 93.3 141.5 89.9 139.5 C 78.9 133.2 74.3 119.5 78.8 107.6 C 82.7 97.5 92.6 91.8 104.2 92.9 C 119.8 94.3 135.4 94.2 151.1 93 C 170.1 91.5 178.7 104.3 177.2 120.5 Z " fill="rgb(255,255,255)"/><path d=" M 93.3 117.1 C 93.3 111.4 96.5 106.8 100.5 106.8 C 104.4 106.8 107.6 111.4 107.6 117.1 C 107.6 122.8 104.4 127.5 100.5 127.5 C 96.5 127.5 93.3 122.8 93.3 117.1 Z " fill="rgb(255,255,255)"/><path d=" M 149.6 117.1 C 149.6 111.4 152.8 106.8 156.7 106.8 C 160.7 106.8 163.9 111.4 163.9 117.1 C 163.9 122.8 160.7 127.5 156.7 127.5 C 152.8 127.5 149.6 122.8 149.6 117.1 Z " fill="rgb(255,255,255)"/><path d=" M 194.6 122.3 C 209 122.7 223.3 123.1 237.4 125.6 C 238.5 125.8 239.7 125.7 240.8 125.7 C 240.8 125.3 240.8 125 240.8 124.7 C 224.7 121.2 208.3 121 191.9 120.6 C 192.5 116.7 193.1 113 193.5 109.3 C 194.9 96.6 193.6 84.5 186.5 74 L 165.1 95.2 C 174.2 99.4 178.2 109.2 177.2 120.6 C 175.8 137.2 164.2 143.7 150.3 145.2 C 143.3 145.8 136.2 145.8 125.9 146.3 C 122.8 146 118.8 145.8 114.3 145.4 L 107.9 151.7 C 108.1 151.7 108.2 151.8 108.4 151.8 C 105.6 154.6 102.7 158.1 101.9 163 C 101.9 163.4 101.2 163.8 100.8 164.1 C 98.6 165.4 95.9 166.1 93.2 166.3 L 81.2 178.1 C 82.4 178.5 83.8 178.8 85.2 179 C 90.4 179.6 95.6 179.1 101.1 179.1 C 101.1 184.9 101 190.7 101.1 196.6 C 101.2 200 99.8 202.4 97.2 204.4 C 95.9 205.4 94.4 206.4 93.2 207.6 C 92.3 208.5 92.1 209.5 93.8 210.1 C 101.4 213 111.6 206.1 111.6 198.1 C 111.6 189.8 111.6 181.6 111.7 173.3 C 111.7 170.8 112.4 168.6 114.5 166.6 C 114.6 167.3 114.7 167.6 114.7 167.9 C 114.7 179.5 114.6 191.2 114.4 202.9 C 114.4 206 113.5 209 110.9 211.3 C 110.3 211.8 109.8 213.5 110.1 213.9 C 110.7 214.6 112 215.1 112.9 215 C 118.6 214.6 124.7 209.3 125.3 203.7 C 126.1 196.1 126.2 188.5 126.5 181 C 126.6 175.8 126.5 170.6 126.5 165.1 C 127.5 165.2 128.3 165.2 129.3 165.2 C 129.3 166.6 129.3 167.7 129.3 168.9 C 129.3 179.2 129.2 189.4 129.5 199.7 C 129.7 207.7 134.9 213.6 142.6 215 C 143.5 215.1 144.9 214.9 145.3 214.3 C 145.8 213.7 145.5 212.4 145.2 211.5 C 144.9 210.7 144 210 143.7 209.2 C 142.6 207 141 204.7 140.9 202.4 C 140.6 190.8 140.8 179.1 140.8 167.3 C 140.8 167.2 141 167 141.3 166.6 C 143.7 168.7 143.8 171.3 143.9 174 C 144.1 182.2 144.3 190.3 144.3 198.5 C 144.3 203.2 146.3 206.6 150.4 208.5 C 152.8 209.6 155.4 210.1 158 210.4 C 159.7 210.5 161.4 209.7 163.1 209.2 C 162.1 208 161.1 206.8 160.1 205.7 C 159.8 205.4 159.5 205.2 159.2 205 C 156.2 202.9 154.7 200.2 154.9 196.3 C 155.1 189.1 155.2 181.9 155 174.7 C 154.8 166 154.8 157 146.4 151.2 C 152.2 150 157.7 149.2 163.1 147.9 C 173.4 145.3 182.4 140.4 187.6 130.5 C 188.8 128.4 190 127.8 192.2 128 C 207.8 129 223.2 130.2 238.3 134.5 C 238.8 134.7 239.5 134.5 240.1 134.5 C 240.2 134.1 240.2 133.8 240.2 133.4 C 223.9 128.2 207 127 190 126.1 C 190.2 123.2 191.8 122.2 194.6 122.3 Z  M 156.7 127.4 C 160.7 127.4 163.9 122.8 163.9 117.1 C 163.9 111.4 160.7 106.8 156.7 106.8 C 152.8 106.8 149.6 111.4 149.6 117.1 C 149.6 122.8 152.7 127.4 156.7 127.4 Z " fill="rgb(241,242,242)"/></g></svg>