<?xml version="1.0" standalone="no"?><!-- Generator: Gravit.io --><svg xmlns="http://www.w3.org/2000/svg" xmlns:xlink="http://www.w3.org/1999/xlink" style="isolation:isolate" viewBox="0 0 256 256" width="256" height="256"><defs><clipPath id="_clipPath_heqO05BIPQzEEcMkO4y5PDeXu8njP9OO"><rect width="256" height="256"/></clipPath></defs><g clip-path="url(#_clipPath_heqO05BIPQzEEcMkO4y5PDeXu8njP9OO)"><path d=" M 128 0.5 C 57.6 0.5 0.5 57.6 0.5 128 C 0.5 198.4 57.6 255.5 128 255.5 C 198.4 255.5 255.5 198.4 255.5 128 C 255.5 57.6 198.4 0.5 128 0.5 Z " fill="rgb(136,190,225)"/><path d=" M 128 255.5 C 198.4 255.5 255.5 198.4 255.5 128 C 255.5 94.1 242.2 63.2 220.6 40.4 L 39.2 219.5 C 62.2 241.8 93.5 255.5 128 255.5 Z " fill="rgb(129,175,210)"/><rect x="52.826" y="103.063" width="42.48" height="98.09" transform="matrix(1,0,0,1,0,0)" fill="rgb(255,255,255)"/><path d=" M 74.1 89.7 C 84.7 89.7 93.4 81.9 93.4 72.3 C 93.4 62.6 84.7 54.8 74.1 54.8 C 63.4 54.8 54.7 62.6 54.7 72.3 C 54.7 81.9 63.4 89.7 74.1 89.7 Z " fill="rgb(255,255,255)"/><path d=" M 203.1 147 C 202.9 141.8 204.1 124.8 191.8 112.6 C 185.3 106.3 182.1 103.2 166.3 103.2 C 153.7 103.2 141.9 111.4 137.2 117.9 L 137.2 103.6 L 104.9 103.6 L 104.9 200.7 L 137.2 200.7 C 137.2 200.7 137.2 156 137.2 145.3 C 137.2 137.3 141.3 128.9 152.6 128.9 C 163.9 128.9 170.9 138 170.9 148.4 L 170.9 200.7 L 203.2 200.7 L 203.2 147 L 203.1 147 Z " fill="rgb(255,255,255)"/><path d=" M 203.1 147 C 202.9 141.8 204.1 124.8 191.8 112.6 C 185.3 106.3 182.1 103.2 166.3 103.2 C 162.3 103.2 158.4 104.1 154.7 105.4 L 104.9 154.6 L 104.9 200.7 L 137.2 200.7 C 137.2 200.7 137.2 156 137.2 145.3 C 137.2 137.3 141.3 128.9 152.6 128.9 C 163.9 128.9 170.9 138 170.9 148.4 L 170.9 200.7 L 203.2 200.7 L 203.2 147 L 203.1 147 Z  M 95.3 201.2 L 95.3 164.1 L 57.8 201.2 L 95.3 201.2 Z " fill="rgb(241,242,242)"/></g></svg>